<svg width="30" height="30" viewBox="0 0 30 30" fill="none" xmlns="http://www.w3.org/2000/svg">
<path fill-rule="evenodd" clip-rule="evenodd" d="M8.81552 0.0902667C10.4154 0.0172672 10.9262 0 15 0C19.0738 0 19.5846 0.0172672 21.1845 0.0902667C22.7811 0.163087 23.8715 0.416679 24.8256 0.78751C25.812 1.17079 26.6485 1.68369 27.4824 2.51758C28.3163 3.35153 28.8292 4.18805 29.2125 5.17443C29.5833 6.12854 29.8369 7.21894 29.9097 8.81552C29.9827 10.4154 30 10.9262 30 15C30 19.0738 29.9827 19.5846 29.9097 21.1845C29.8369 22.7811 29.5833 23.8715 29.2125 24.8256C28.8292 25.812 28.3163 26.6485 27.4824 27.4824C26.6485 28.3163 25.812 28.8292 24.8256 29.2125C23.8715 29.5833 22.7811 29.8369 21.1845 29.9097C19.5846 29.9827 19.0738 30 15 30C10.9262 30 10.4154 29.9827 8.81552 29.9097C7.21894 29.8369 6.12854 29.5833 5.17443 29.2125C4.18805 28.8292 3.35153 28.3163 2.51758 27.4824C1.68369 26.6485 1.17079 25.812 0.78751 24.8256C0.416679 23.8715 0.163087 22.7811 0.0902667 21.1845C0.0172672 19.5846 0 19.0738 0 15C0 10.9262 0.0172672 10.4154 0.0902667 8.81552C0.163087 7.21894 0.416679 6.12854 0.78751 5.17443C1.17079 4.18805 1.68369 3.35153 2.51758 2.51758C3.35153 1.68369 4.18805 1.17079 5.17443 0.78751C6.12854 0.416679 7.21894 0.163087 8.81552 0.0902667ZM23.8466 3.30664C23.318 3.10122 22.5238 2.85685 21.0613 2.79017C19.4796 2.718 19.0052 2.7027 15 2.7027C10.9948 2.7027 10.5204 2.718 8.93871 2.79017C7.47623 2.85685 6.68199 3.10122 6.15343 3.30664C5.45327 3.57875 4.95359 3.90379 4.42872 4.42872C3.90379 4.95359 3.57875 5.45327 3.30664 6.15343C3.10122 6.68199 2.85685 7.47623 2.79017 8.93871C2.718 10.5204 2.7027 10.9948 2.7027 15C2.7027 19.0052 2.718 19.4796 2.79017 21.0613C2.85685 22.5238 3.10122 23.318 3.30664 23.8466C3.57875 24.5467 3.90385 25.0464 4.42872 25.5713C4.95359 26.0962 5.45327 26.4213 6.15343 26.6934C6.68199 26.8988 7.47623 27.1431 8.93871 27.2098C10.5202 27.282 10.9945 27.2973 15 27.2973C19.0055 27.2973 19.4798 27.282 21.0613 27.2098C22.5238 27.1431 23.318 26.8988 23.8466 26.6934C24.5467 26.4213 25.0464 26.0962 25.5713 25.5713C26.0962 25.0464 26.4213 24.5467 26.6934 23.8466C26.8988 23.318 27.1431 22.5238 27.2098 21.0613C27.282 19.4796 27.2973 19.0052 27.2973 15C27.2973 10.9948 27.282 10.5204 27.2098 8.93871C27.1431 7.47623 26.8988 6.68199 26.6934 6.15343C26.4213 5.45327 26.0962 4.95359 25.5713 4.42872C25.0464 3.90379 24.5467 3.57875 23.8466 3.30664ZM15 7.2973C10.7459 7.2973 7.2973 10.7459 7.2973 15C7.2973 19.2541 10.7459 22.7027 15 22.7027C19.2541 22.7027 22.7027 19.2541 22.7027 15C22.7027 10.7459 19.2541 7.2973 15 7.2973ZM10 15C10 17.7614 12.2386 20 15 20C17.7614 20 20 17.7614 20 15C20 12.2386 17.7614 10 15 10C12.2386 10 10 12.2386 10 15ZM23.007 8.79295C24.0011 8.79295 24.8071 7.9871 24.8071 6.99298C24.8071 5.99886 24.0011 5.19295 23.007 5.19295C22.013 5.19295 21.207 5.99886 21.207 6.99298C21.207 7.9871 22.013 8.79295 23.007 8.79295Z" fill="#FDD65B"/>
</svg>
