<svg width="143" height="31" viewBox="0 0 143 31" fill="none" xmlns="http://www.w3.org/2000/svg">
<path d="M29.8982 26.5963L23.337 16.9286C23.1826 16.6984 22.9511 16.4682 22.7195 16.3147L22.1792 15.9311C21.5617 15.4707 21.5617 14.6267 22.1792 14.1664L22.6423 13.8595C22.8739 13.706 23.1054 13.4758 23.2598 13.2456L29.9753 3.73137C30.5157 2.88737 30.5929 1.81318 29.9753 1.0459C29.2034 0.0484357 27.814 -0.181746 26.8106 0.508805L17.0847 7.03067C16.8531 7.18413 16.6215 7.41431 16.4671 7.64449L16.0812 8.18159C15.6181 8.79542 14.769 8.79542 14.3058 8.18159L13.9971 7.72122C13.8427 7.49104 13.6111 7.26086 13.3796 7.1074L3.80802 0.432073C2.95893 -0.105022 1.87828 -0.18175 1.10638 0.432073C0.102914 1.19935 -0.128653 2.58046 0.566055 3.57792L7.12718 13.2456C7.28156 13.4758 7.51313 13.706 7.7447 13.8595L8.28503 14.2431C8.90254 14.7035 8.90254 15.5475 8.28503 16.0078L7.82188 16.3147C7.59031 16.4682 7.35876 16.6984 7.20438 16.9286L0.411678 26.5196C-0.20584 27.4403 -0.128648 28.6679 0.643249 29.4352C1.41515 30.2025 2.65017 30.3559 3.57645 29.7421L13.3024 23.2203C13.5339 23.0668 13.7655 22.8366 13.9199 22.6064L14.3058 22.0693C14.769 21.4555 15.6181 21.4555 16.0812 22.0693L16.3899 22.5297C16.5443 22.7599 16.7759 22.9901 17.0075 23.1435L26.7334 29.8956C27.6596 30.5094 28.8947 30.4327 29.6666 29.6654C30.4385 28.7447 30.5157 27.517 29.8982 26.5963Z" fill="#E3B748"/>
<path d="M41.695 7.92906H45.1186V23.2135H41.695V7.92906Z" fill="white"/>
<path d="M56.0567 10.5757C54.4619 10.5757 53.3061 11.0242 52.5892 11.9211C51.8869 12.8033 51.5358 14.0164 51.5358 15.5602C51.5358 16.3101 51.6236 16.9939 51.7991 17.6114C51.9747 18.2143 52.2381 18.7362 52.5892 19.1773C52.9403 19.6185 53.3793 19.964 53.906 20.214C54.4327 20.4492 55.0472 20.5668 55.7495 20.5668C56.1299 20.5668 56.4517 20.5595 56.7151 20.5448C56.9931 20.5301 57.2345 20.5007 57.4393 20.4566V15.1412H60.8629V22.7062C60.4532 22.868 59.7949 23.037 58.8878 23.2135C57.9806 23.4046 56.8614 23.5002 55.53 23.5002C54.3888 23.5002 53.35 23.3238 52.4136 22.9709C51.4919 22.618 50.7018 22.1034 50.0435 21.427C49.3851 20.7506 48.873 19.9199 48.5072 18.9347C48.1561 17.9496 47.9805 16.8248 47.9805 15.5602C47.9805 14.281 48.178 13.1489 48.5731 12.1637C48.9681 11.1786 49.5094 10.3478 50.1971 9.67144C50.8847 8.98037 51.6894 8.45839 52.6112 8.1055C53.5475 7.75262 54.5424 7.57617 55.5958 7.57617C56.3127 7.57617 56.9565 7.62763 57.5271 7.73056C58.1123 7.81878 58.6098 7.92906 59.0194 8.06139C59.4437 8.17902 59.7875 8.304 60.0509 8.43634C60.3289 8.56867 60.5264 8.67159 60.6434 8.74511L59.6559 11.502C59.1877 11.2521 58.6463 11.0389 58.0319 10.8624C57.432 10.6713 56.7736 10.5757 56.0567 10.5757Z" fill="white"/>
<path d="M68.1962 20.5889C68.679 20.5889 69.074 20.5521 69.3813 20.4786C69.7031 20.3904 69.9592 20.2801 70.1494 20.1478C70.3396 20.0007 70.4713 19.8317 70.5444 19.6405C70.6176 19.4494 70.6541 19.2362 70.6541 19.0009C70.6541 18.501 70.42 18.0893 69.9519 17.7658C69.4837 17.4276 68.679 17.0674 67.5378 16.6851C67.0403 16.5086 66.5429 16.3101 66.0455 16.0896C65.548 15.8543 65.1018 15.5676 64.7067 15.2294C64.3117 14.8765 63.9898 14.4575 63.7411 13.9723C63.4924 13.4723 63.368 12.8695 63.368 12.1637C63.368 11.4579 63.4997 10.8257 63.7631 10.2669C64.0264 9.6935 64.3995 9.20828 64.8823 8.81128C65.3651 8.41428 65.9504 8.11286 66.638 7.907C67.3256 7.68645 68.1011 7.57617 68.9643 7.57617C69.9884 7.57617 70.8736 7.68645 71.6198 7.907C72.3659 8.12756 72.9804 8.37017 73.4632 8.63483L72.4757 11.3477C72.0514 11.1271 71.5759 10.936 71.0492 10.7742C70.5371 10.5978 69.9153 10.5095 69.1838 10.5095C68.3644 10.5095 67.7719 10.6272 67.4061 10.8624C67.055 11.083 66.8794 11.4285 66.8794 11.899C66.8794 12.1784 66.9452 12.4137 67.0769 12.6048C67.2086 12.796 67.3915 12.9724 67.6256 13.1341C67.8743 13.2812 68.1523 13.4209 68.4595 13.5532C68.7814 13.6708 69.1325 13.7958 69.5129 13.9281C70.303 14.2222 70.9907 14.5163 71.5759 14.8104C72.1611 15.0897 72.6439 15.4206 73.0243 15.8029C73.4194 16.1852 73.712 16.6336 73.9022 17.1482C74.0924 17.6629 74.1875 18.2878 74.1875 19.023C74.1875 20.4492 73.69 21.5593 72.6951 22.3533C71.7002 23.1326 70.2006 23.5223 68.1962 23.5223C67.5232 23.5223 66.916 23.4782 66.3746 23.3899C65.8333 23.3164 65.3505 23.2208 64.9262 23.1032C64.5165 22.9856 64.1581 22.8606 63.8508 22.7283C63.5582 22.5959 63.3095 22.471 63.1047 22.3533L64.0703 19.6185C64.5239 19.8684 65.0798 20.0963 65.7382 20.3022C66.4112 20.4933 67.2305 20.5889 68.1962 20.5889Z" fill="white"/>
<path d="M87.6734 7.92906V10.8624H83.0866V23.2135H79.663V10.8624H75.0763V7.92906H87.6734Z" fill="white"/>
<path d="M95.8211 23.5223C94.753 23.5223 93.8313 23.3752 93.0558 23.0812C92.2804 22.7724 91.6367 22.3533 91.1246 21.824C90.6271 21.28 90.254 20.6404 90.0053 19.9052C89.7712 19.1553 89.6542 18.3319 89.6542 17.435V7.92906H93.0778V17.1482C93.0778 17.7658 93.1436 18.2951 93.2753 18.7362C93.4216 19.1626 93.6118 19.5155 93.8459 19.7949C94.0946 20.0596 94.3872 20.2507 94.7237 20.3683C95.0749 20.486 95.4553 20.5448 95.8649 20.5448C96.6989 20.5448 97.3719 20.2875 97.884 19.7728C98.4107 19.2582 98.674 18.3833 98.674 17.1482V7.92906H102.098V17.435C102.098 18.3319 101.973 19.1553 101.725 19.9052C101.476 20.6551 101.095 21.302 100.583 21.8461C100.071 22.3754 99.4202 22.7871 98.6302 23.0812C97.8401 23.3752 96.9037 23.5223 95.8211 23.5223Z" fill="white"/>
<path d="M108.814 20.4124C108.975 20.4272 109.158 20.4419 109.363 20.4566C109.582 20.4566 109.838 20.4566 110.131 20.4566C111.842 20.4566 113.108 20.0228 113.927 19.1553C114.761 18.2878 115.178 17.0894 115.178 15.5602C115.178 13.9576 114.783 12.7445 113.993 11.9211C113.203 11.0977 111.952 10.686 110.24 10.686C110.006 10.686 109.765 10.6933 109.516 10.708C109.267 10.708 109.033 10.7228 108.814 10.7522V20.4124ZM118.712 15.5602C118.712 16.8836 118.507 18.0378 118.097 19.023C117.687 20.0081 117.102 20.8242 116.341 21.4711C115.595 22.1181 114.681 22.6033 113.598 22.9268C112.515 23.2502 111.301 23.412 109.955 23.412C109.341 23.412 108.624 23.3826 107.804 23.3238C106.985 23.2797 106.18 23.1767 105.39 23.015V8.12756C106.18 7.98052 107 7.88495 107.848 7.84084C108.711 7.78202 109.45 7.75262 110.065 7.75262C111.367 7.75262 112.545 7.89965 113.598 8.19373C114.666 8.4878 115.581 8.95096 116.341 9.58322C117.102 10.2155 117.687 11.0242 118.097 12.0093C118.507 12.9945 118.712 14.1781 118.712 15.5602Z" fill="white"/>
<path d="M121.571 7.92906H124.995V23.2135H121.571V7.92906Z" fill="white"/>
<path d="M131.39 15.5602C131.39 16.3101 131.478 16.9865 131.653 17.5893C131.844 18.1922 132.107 18.7142 132.444 19.1553C132.795 19.5817 133.219 19.9125 133.716 20.1478C134.214 20.383 134.784 20.5007 135.428 20.5007C136.057 20.5007 136.621 20.383 137.118 20.1478C137.63 19.9125 138.054 19.5817 138.391 19.1553C138.742 18.7142 139.005 18.1922 139.181 17.5893C139.371 16.9865 139.466 16.3101 139.466 15.5602C139.466 14.8104 139.371 14.134 139.181 13.5311C139.005 12.9136 138.742 12.3916 138.391 11.9652C138.054 11.5241 137.63 11.1859 137.118 10.9507C136.621 10.7154 136.057 10.5978 135.428 10.5978C134.784 10.5978 134.214 10.7228 133.716 10.9727C133.219 11.208 132.795 11.5462 132.444 11.9873C132.107 12.4137 131.844 12.9356 131.653 13.5532C131.478 14.1561 131.39 14.8251 131.39 15.5602ZM143 15.5602C143 16.8689 142.802 18.0231 142.407 19.023C142.027 20.0081 141.5 20.8389 140.827 21.5152C140.154 22.1769 139.349 22.6768 138.413 23.015C137.491 23.3532 136.496 23.5223 135.428 23.5223C134.389 23.5223 133.409 23.3532 132.487 23.015C131.566 22.6768 130.761 22.1769 130.073 21.5152C129.386 20.8389 128.844 20.0081 128.449 19.023C128.054 18.0231 127.857 16.8689 127.857 15.5602C127.857 14.2516 128.062 13.1047 128.471 12.1196C128.881 11.1197 129.43 10.2816 130.117 9.60527C130.819 8.92891 131.624 8.42163 132.531 8.08345C133.453 7.74526 134.419 7.57617 135.428 7.57617C136.467 7.57617 137.447 7.74526 138.369 8.08345C139.291 8.42163 140.095 8.92891 140.783 9.60527C141.471 10.2816 142.012 11.1197 142.407 12.1196C142.802 13.1047 143 14.2516 143 15.5602Z" fill="white"/>
</svg>
