<svg width="30" height="31" viewBox="0 0 30 31" fill="none" xmlns="http://www.w3.org/2000/svg">
<path fill-rule="evenodd" clip-rule="evenodd" d="M14.9999 0C6.71574 0 0 6.71615 0 15.0009C0 21.3559 3.95373 26.7887 9.53358 28.9745C9.4025 27.7876 9.2841 25.9623 9.58571 24.6666C9.85819 23.496 11.3445 17.2102 11.3445 17.2102C11.3445 17.2102 10.8958 16.3116 10.8958 14.983C10.8958 12.8972 12.1048 11.3399 13.61 11.3399C14.8898 11.3399 15.5079 12.3009 15.5079 13.4531C15.5079 14.7401 14.6885 16.6643 14.2656 18.4476C13.9122 19.9408 15.0143 21.1584 16.4869 21.1584C19.1529 21.1584 21.2022 18.3471 21.2022 14.289C21.2022 10.6974 18.6216 8.18609 14.9366 8.18609C10.6687 8.18609 8.16345 11.3875 8.16345 14.6962C8.16345 15.9853 8.66008 17.368 9.27979 18.1194C9.40238 18.2679 9.42033 18.3982 9.38394 18.5497C9.26995 19.0236 9.01691 20.0425 8.96723 20.2509C8.90182 20.5255 8.74984 20.5836 8.46556 20.4516C6.59217 19.5794 5.42087 16.8403 5.42087 14.6401C5.42087 9.9081 8.85878 5.56249 15.3319 5.56249C20.5354 5.56249 24.5791 9.27052 24.5791 14.2262C24.5791 19.3962 21.3196 23.5568 16.7955 23.5568C15.2756 23.5568 13.8466 22.7671 13.3575 21.8343C13.3575 21.8343 12.6053 24.6984 12.423 25.4002C12.0843 26.7033 11.1702 28.3365 10.5587 29.3328C11.9621 29.7673 13.4536 30.0018 14.9999 30.0018C23.2843 30.0018 30 23.2857 30 15.0009C30 6.71615 23.2843 0 14.9999 0Z" fill="#FDD65B"/>
</svg>
